# xmcd
#
# Track frame offsets: 
#        150
#        19547
#        36635
#        55940
#        66492
#        81872
#        102215
#        118677
#        133100
#        147182
#        163450
#        179227
#
# Disc length: 2601 seconds
#
# Revision: 4
# Processed by: cddbd v1.5PL3 Copyright (c) Steve Scherf et al.
# Submitted via: ExactAudioCopy v0.95a4
#
DISCID=b90a270c
DTITLE=Kris Kristofferson - Songs Of Kristofferson
DYEAR=1900
DGENRE=Country
TTITLE0=The Silver-Tongued Devil
TTITLE1=Loving Her Was Easier (Than Anything I'll Ever Do Again)
TTITLE2=Me And Bobby McGee
TTITLE3=Help Me Make It Through The Night
TTITLE4=For The Good Times
TTITLE5=Sunday Morning Comin' Down
TTITLE6=You Show Me Yours (And I'll Show You Mine)
TTITLE7=The Pilgrim: Chapter 33 (Hang In, Hopper)
TTITLE8=Stranger
TTITLE9=I Got A Life Of My Own
TTITLE10=Why Me
TTITLE11=Who's To Bless And Who's To Blame
EXTD=
EXTT0=
EXTT1=
EXTT2=
EXTT3=
EXTT4=
EXTT5=
EXTT6=
EXTT7=
EXTT8=
EXTT9=
EXTT10=
EXTT11=
PLAYORDER=
